<svg version="1.1" id="Ebene_1" xmlns="http://www.w3.org/2000/svg" xmlns:xlink="http://www.w3.org/1999/xlink" x="0" y="0" viewBox="0 0 538 248" xml:space="preserve">
  <style>
    .st1{fill-rule:evenodd;clip-rule:evenodd;fill:#ffbd00}.st4{fill:#1d5072}
  </style>
  <path d="M220.8 66.7l-4-6.8c-2.8-3.8-6.3-6.9-10.3-9.2l-76.6-44C119.3.6 106.1.6 95.5 6.7l-76.3 44c-4.3 2.4-8.2 6-11.1 10.3l-3.7 7C2.8 72 2 76.2 2 80.4v87.9c0 12.3 6.6 23.7 17.2 29.9l76.3 44c4 2.3 8.5 3.8 13.2 4.3h7.9c4.8-.5 9.2-2 13.2-4.3l76.6-44c10.7-6.1 17.3-17.6 17.3-29.9V80.5c.1-4.7-.9-9.4-2.9-13.8zm-59.9 38.6v38c0 5.3-2.9 10.3-7.5 12.9l-33.2 19.1c-1.7 1-3.7 1.6-5.7 1.9h-3.4c-2.1-.2-4-.9-5.7-1.9l-33-19.1c-4.6-2.7-7.5-7.6-7.5-12.9v-38.1c0-1.8.3-3.6 1-5.4l1.6-3c1.3-1.9 2.9-3.4 4.8-4.5l33-19.1c4.6-2.6 10.3-2.7 14.9 0l33.2 19.1c1.7 1 3.2 2.3 4.5 4l1.7 3c.9 1.9 1.3 3.9 1.3 6z" fill="#f88400"/>
  <path id="SVGID_1_" class="st1" d="M214.1 56.5c-3-4.1-17.2-11.3-23.4-15-13.5-8-55.4-31.9-55.4-31.9-4.4-2.6-10-6.1-17.7-7.2l-3.8-.4c.3.6 2.7 11.5 2.8 12.2l13.8 72.4c.6 4.9 5.9 7.9 10.4 5.7l10.5-5.9 10.5-5.9 42-23.5c3.1-2 7-2.2 10.3-.5"/>
  <defs>
    <path id="SVGID_2_" d="M214.1 56.5c-3-4.1-17.2-11.3-23.4-15-13.5-8-55.4-31.9-55.4-31.9-4.4-2.6-10-6.1-17.7-7.2l-3.8-.4c.3.6 2.7 11.5 2.8 12.2l13.8 72.4c.6 4.9 5.9 7.9 10.4 5.7l10.5-5.9 10.5-5.9 42-23.5c3.1-2 7-2.2 10.3-.5"/>
  </defs>
  <clipPath id="SVGID_4_">
    <use xlink:href="#SVGID_2_" overflow="visible"/>
  </clipPath>
  <path clip-path="url(#SVGID_4_)" fill="#ffbd00" d="M165-29.1L86.8 14.6l49 85.7 78.3-43.8z"/>
  <g>
    <path id="SVGID_3_" class="st1" d="M131.1 241.5l11.4-53.2c.6-2.9-.6-6.8-4.3-6.8-3 0-9.9.8-12.9 1-12.1.7-33.1 3.7-48.4 3.7-24.8 0-39.9-1.9-62.7-3.7-5-.4-8.9-3.1-11.6-7.4 0 0 .1 6 7.1 14.9 19.5 24.9 88 53.4 88 53.4 5.4 2.3 6.8 3 12 3 5.4.1 7.2.3 12.3-1 5.8-1.5 9.1-3.9 9.1-3.9z"/>
    <defs>
      <path id="SVGID_5_" d="M131.1 241.5l11.4-53.2c.6-2.9-.6-6.8-4.3-6.8-3 0-9.9.8-12.9 1-12.1.7-33.1 3.7-48.4 3.7-24.8 0-39.9-1.9-62.7-3.7-5-.4-8.9-3.1-11.6-7.4 0 0 .1 6 7.1 14.9 19.5 24.9 88 53.4 88 53.4 5.4 2.3 6.8 3 12 3 5.4.1 7.2.3 12.3-1 5.8-1.5 9.1-3.9 9.1-3.9z"/>
    </defs>
    <clipPath id="SVGID_6_">
      <use xlink:href="#SVGID_5_" overflow="visible"/>
    </clipPath>
    <path clip-path="url(#SVGID_6_)" fill="#ffbd00" d="M2 160.2h141.2v86.1H2z"/>
  </g>
  <g>
    <path class="st4" d="M297 159.8V97.6h11v52.9h25.9v9.3H297zM355.1 161c-4.1 0-7.5-1.3-10-3.8s-3.8-5.8-3.8-9.9c0-2.5.5-4.7 1.6-6.6s2.7-3.6 4.9-5 5.1-2.6 8.6-3.5c3.5-1 7.6-1.7 12.4-2.2-.1-1.2-.2-2.4-.5-3.5s-.8-2.1-1.4-2.9c-.7-.9-1.5-1.5-2.6-2s-2.4-.7-4-.7c-2.3 0-4.5.4-6.7 1.3s-4.3 2-6.4 3.2l-4-7.3c2.6-1.6 5.5-3.1 8.8-4.3 3.2-1.2 6.7-1.8 10.5-1.8 5.8 0 10.2 1.7 13.1 5.2 2.9 3.5 4.3 8.4 4.3 15v27.7h-9l-.8-5.1h-.4c-2.1 1.8-4.3 3.3-6.7 4.5-2.5 1.1-5.1 1.7-7.9 1.7zm3.5-8.6c1.9 0 3.6-.4 5.2-1.3s3.2-2.2 5-3.8v-10.5c-3.2.4-5.8.9-8 1.5s-3.9 1.3-5.2 2.1-2.3 1.7-2.9 2.7c-.6 1-.9 2.1-.9 3.2 0 2.1.6 3.6 1.9 4.6s3 1.5 4.9 1.5zM392.9 159.8v-46.7h9l.8 6.3h.4c2.1-2 4.4-3.8 6.8-5.2 2.4-1.5 5.3-2.2 8.5-2.2 5 0 8.7 1.6 10.9 4.8 2.3 3.2 3.4 7.8 3.4 13.7v29.3h-10.9V132c0-3.9-.6-6.6-1.7-8.2-1.1-1.6-3-2.4-5.6-2.4-2 0-3.8.5-5.4 1.5-1.6 1-3.3 2.4-5.3 4.3v32.6h-10.9zM462.5 161c-5.9 0-10.6-2.1-14-6.4-3.5-4.3-5.2-10.3-5.2-18 0-3.8.6-7.2 1.7-10.3 1.1-3 2.6-5.6 4.4-7.7 1.8-2.1 3.9-3.7 6.3-4.9s4.8-1.7 7.4-1.7c2.7 0 4.9.5 6.8 1.4 1.8.9 3.7 2.2 5.5 3.8l-.4-7.5v-17h10.9v67.2h-9l-.8-5h-.4c-1.7 1.7-3.7 3.2-6 4.4-2.3 1.1-4.7 1.7-7.2 1.7zm2.7-9c3.5 0 6.8-1.7 9.8-5.2V125c-1.6-1.5-3.3-2.5-4.8-3-1.6-.6-3.1-.9-4.7-.9-3 0-5.6 1.3-7.7 4-2.1 2.7-3.1 6.5-3.1 11.4 0 5.1.9 8.9 2.7 11.6s4.3 3.9 7.8 3.9zM499.8 159.8v-46.7h9l.8 8.3h.4c1.6-3 3.6-5.4 6-7 2.3-1.6 4.8-2.4 7.2-2.4 2.2 0 4 .3 5.3 1l-1.9 9.5c-.8-.3-1.6-.4-2.3-.6-.7-.1-1.6-.2-2.6-.2-1.8 0-3.8.7-5.8 2.1s-3.8 3.9-5.2 7.5v28.5h-10.9z"/>
  </g>
</svg>
