<svg xmlns="http://www.w3.org/2000/svg" xmlns:xlink="http://www.w3.org/1999/xlink" version="1.1" x="0px" y="0px" viewBox="0 0 100 125" enable-background="new 0 0 100 100" xml:space="preserve"><path fill="#000000" stroke="#000000" stroke-width="2.8347" stroke-linecap="round" stroke-linejoin="round" stroke-miterlimit="10" d="  M-1640.055,988.477"/><path fill="#000000" stroke="#000000" stroke-width="2.8347" stroke-linecap="round" stroke-linejoin="round" stroke-miterlimit="10" d="  M-1657.001,1021.161"/><path d="M94.344,87.609h-2.016l-15.27-35.326c-0.121-0.281-0.352-0.501-0.637-0.61c-0.283-0.109-0.602-0.098-0.881,0.031  L59.5,59.153h-0.152c0.621-0.302,1.23-0.623,1.816-0.98c4.479-2.732,7.881-7.054,9.416-12.176l4.578-0.428  c0.584-0.054,1.029-0.543,1.029-1.129V33.606c0-0.586-0.447-1.077-1.033-1.129l-5.18-0.468c-0.951-2.398-2.33-4.582-4.031-6.467  l3.627-3.628l4.699,4.698c0.223,0.221,0.512,0.332,0.803,0.332c0.289,0,0.58-0.111,0.801-0.332c0.443-0.443,0.443-1.161,0-1.604  l-4.699-4.698l1.24-1.24l2.754,2.752c0.221,0.221,0.512,0.332,0.801,0.332c0.291,0,0.58-0.111,0.803-0.332  c0.441-0.443,0.441-1.161,0-1.604l-2.754-2.752l1.107-1.106c0.441-0.443,0.441-1.161,0-1.604c-0.443-0.442-1.16-0.442-1.604,0  l-1.107,1.106l-2.752-2.752c-0.443-0.442-1.16-0.442-1.604,0c-0.441,0.443-0.441,1.161,0,1.604l2.752,2.752l-1.24,1.24l-4.697-4.697  c-0.443-0.442-1.16-0.442-1.604,0c-0.441,0.443-0.441,1.161,0,1.604l4.699,4.697l-3.631,3.631c-1.408-1.263-2.979-2.349-4.684-3.208  l-0.236-5.856c-0.023-0.608-0.523-1.088-1.133-1.088H42.533c-0.188,0-0.355,0.058-0.512,0.138c-1.611-2.296-4.273-3.804-7.283-3.804  c-4.906,0-8.898,3.991-8.898,8.897c0,4.135,2.838,7.61,6.666,8.604c-0.965,1.378-1.791,2.859-2.414,4.449l-4.473,0.404  c-0.584,0.053-1.031,0.543-1.031,1.129V44.44c0,0.585,0.445,1.075,1.027,1.129l3.869,0.361c1.557,5.271,5.092,9.686,9.736,12.417  l-14.305-6.643c-0.279-0.129-0.598-0.141-0.881-0.031c-0.287,0.109-0.516,0.329-0.639,0.61L8.129,87.609H5.656  c-0.627,0-1.135,0.508-1.135,1.134s0.508,1.134,1.135,1.134h3.213c0.002,0,0.002,0,0.004,0l0.002,0h6.721  c0.625,0,1.133-0.508,1.133-1.134s-0.508-1.134-1.133-1.134H10.6l10.316-23.868v11.96c0,0.626,0.508,1.134,1.133,1.134h17.795  l-1.467,5.71c-0.088,0.34-0.012,0.7,0.203,0.977c0.213,0.277,0.545,0.439,0.895,0.439h9.801v3.647h-5.598  c-0.627,0-1.135,0.508-1.135,1.134s0.508,1.134,1.135,1.134h13.463c0.625,0,1.133-0.508,1.133-1.134s-0.508-1.134-1.133-1.134  h-5.598v-3.647h9.801c0.008,0,0.014,0,0.02,0c0.627,0,1.135-0.508,1.135-1.134c0-0.172-0.039-0.334-0.107-0.48l-1.414-5.512H78.77  c0.627,0,1.135-0.508,1.135-1.134v-11.12l9.953,23.027h-5.453c-0.625,0-1.133,0.508-1.133,1.134s0.508,1.134,1.133,1.134h7.176  c0.002,0,0.002,0,0.004,0l0.002,0h2.758c0.627,0,1.135-0.508,1.135-1.134S94.971,87.609,94.344,87.609z M61.059,55.545l-0.348-8.627  l7.414-0.692C66.785,50.017,64.289,53.267,61.059,55.545z M70.752,34.356l3.168,0.286v8.766l-2.781,0.26l-2.354,0.22l-8.166,0.762  l-0.453-11.25l8.162,0.737L70.752,34.356z M62.729,25.55c0.566,0.502,1.105,1.032,1.609,1.597c1.232,1.381,2.271,2.936,3.068,4.629  l-7.334-0.663l-0.311-7.742C60.822,24,61.811,24.737,62.729,25.55z M75.439,54.252l2.117,4.901H64.885L75.439,54.252z M28.107,19.02  c0-3.655,2.975-6.629,6.631-6.629c3.299,0,6.033,2.425,6.537,5.583c0.055,0.342,0.092,0.689,0.092,1.046  c0,0.455-0.047,0.9-0.135,1.33c-0.018,0.083-0.053,0.023-0.053,0.023c-0.785,0.358-1.535,0.776-2.264,1.224l-0.922-0.92  c0.256-0.5,0.414-1.057,0.414-1.655c0-2.024-1.646-3.671-3.672-3.671c-2.023,0-3.67,1.647-3.67,3.671  c0,2.023,1.646,3.669,3.67,3.669c0.598,0,1.156-0.157,1.654-0.412l0.631,0.631c-1.053,0.817-2.041,1.716-2.93,2.708  C30.738,25.292,28.107,22.458,28.107,19.02z M40.746,31.11l-8.092,0.731c0.656-1.415,1.48-2.736,2.443-3.94  c1.629-2.034,3.658-3.731,5.979-4.964l-0.098,2.415L40.746,31.11z M33.936,19.823l0.576,0.578c-0.666-0.108-1.178-0.683-1.178-1.379  c0-0.774,0.629-1.404,1.402-1.404c0.697,0,1.273,0.513,1.381,1.181l-0.578-0.579c-0.443-0.443-1.16-0.442-1.604,0  C33.492,18.662,33.492,19.38,33.936,19.823z M28.947,43.603l-2.092-0.195v-8.766l2.475-0.224l2.395-0.216l8.93-0.807l-0.455,11.258  l-8.918-0.833L28.947,43.603z M31.947,46.161l8.162,0.762l-0.367,9.098C36.146,53.719,33.375,50.257,31.947,46.161z M25.018,54.252  l10.553,4.901H22.898L25.018,54.252z M31.889,74.568h-8.705V61.421h8.705V74.568z M49.275,81.695h-8.338l1.248-4.859h7.09V81.695z   M49.275,74.568h-7.971h-7.148V61.421h6.508c0.002,0,0.002,0,0.004,0h8.607V74.568z M50.41,52.423c-0.627,0-1.135,0.508-1.135,1.134  v5.471c-2.605-0.106-5.072-0.742-7.312-1.789l0.436-10.819l0.592-14.669l0.396-9.836l0.043-1.057l0.055-1.392l0.064-1.606  l0.074-1.804h13.574l0.148,3.683l0.098,2.448l0.383,9.477l0.598,14.821l0.42,10.408c-2.219,1.152-4.686,1.885-7.301,2.091v-5.427  C51.543,52.931,51.035,52.423,50.41,52.423z M51.543,81.695v-4.859h7.092l1.246,4.859H51.543z M66.662,74.568h-7.148h-7.971V61.421  h8.246c0.002,0,0.002,0,0.004,0h6.869V74.568z M77.637,74.568H68.93V61.421h8.707V74.568z"/><text x="0" y="115" fill="#000000" font-size="5px" font-weight="bold" font-family="'Helvetica Neue', Helvetica, Arial-Unicode, Arial, Sans-serif">Created by costantino montanari</text><text x="0" y="120" fill="#000000" font-size="5px" font-weight="bold" font-family="'Helvetica Neue', Helvetica, Arial-Unicode, Arial, Sans-serif">from the Noun Project</text></svg>